<svg width="33" height="33" viewBox="0 0 33 33" fill="none" xmlns="http://www.w3.org/2000/svg">
<g clip-path="url(#clip0_666_58)">
<path d="M26.6402 2.69971H10.6483C7.32996 2.69971 4.65131 5.37836 4.65131 8.69669V20.6906C4.65131 24.009 7.32996 26.6876 10.6483 26.6876H26.6402C29.9586 26.6876 32.6372 24.009 32.6372 20.6906V8.69669C32.6372 5.37836 29.9586 2.69971 26.6402 2.69971ZM26.6402 4.03237C27.9063 4.03237 29.0657 4.53878 29.9052 5.36503L21.9493 13.321C20.1235 15.1468 17.1783 15.1468 15.3526 13.321L7.38326 5.36503C8.22284 4.53878 9.38226 4.03237 10.6483 4.03237H26.6402ZM31.3045 20.6906C31.3045 23.2627 29.2123 25.355 26.6402 25.355H10.6483C8.07625 25.355 5.98397 23.2627 5.98397 20.6906V8.69669C5.98397 7.87044 6.19719 7.11082 6.57034 6.43116L14.4064 14.2672C15.5791 15.44 17.1117 16.0263 18.6443 16.0263C20.1768 16.0263 21.7094 15.44 22.8821 14.2672L30.7182 6.43116C31.0913 7.09749 31.3045 7.87044 31.3045 8.69669V20.6906ZM24.6412 30.0193C24.6412 30.3924 24.348 30.6856 23.9749 30.6856H6.6503C3.3453 30.6856 0.65332 27.9936 0.65332 24.6886V10.0293C0.65332 9.6562 0.946506 9.36302 1.31965 9.36302C1.6928 9.36302 1.98598 9.6562 1.98598 10.0293V24.6886C1.98598 27.2607 4.07826 29.3529 6.6503 29.3529H23.9749C24.348 29.3529 24.6412 29.6461 24.6412 30.0193Z" fill="#AFAFAF"/>
</g>
<defs>
<clipPath id="clip0_666_58">
<rect width="31.9839" height="31.9839" fill="white" transform="translate(0.65332 0.0339355)"/>
</clipPath>
</defs>
</svg>
