<svg width="33" height="33" viewBox="0 0 33 33" fill="none" xmlns="http://www.w3.org/2000/svg">
<g clip-path="url(#clip0_666_63)">
<path d="M24.6412 16.6473C20.2315 16.6473 16.6453 20.2335 16.6453 24.6433C16.6453 29.0531 20.2315 32.6393 24.6412 32.6393C29.051 32.6393 32.6372 29.0531 32.6372 24.6433C32.6372 20.2335 29.051 16.6473 24.6412 16.6473ZM21.9759 30.7416V29.974C21.9759 28.504 23.1713 27.3086 24.6412 27.3086C26.1112 27.3086 27.3066 28.504 27.3066 29.974V30.7416C26.4883 31.1001 25.5901 31.3066 24.6412 31.3066C23.6924 31.3066 22.7942 31.1014 21.9759 30.7416ZM28.6366 29.942C28.6192 27.7524 26.8361 25.976 24.6412 25.976C22.4463 25.976 20.6632 27.7524 20.6459 29.942C19.0361 28.7239 17.9779 26.8129 17.9779 24.6433C17.9779 20.9692 20.9671 17.98 24.6412 17.98C28.3154 17.98 31.3045 20.9692 31.3045 24.6433C31.3045 26.8129 30.2464 28.7253 28.6366 29.942ZM24.6412 19.3127C23.1713 19.3127 21.9759 20.5081 21.9759 21.978C21.9759 23.4479 23.1713 24.6433 24.6412 24.6433C26.1112 24.6433 27.3066 23.4479 27.3066 21.978C27.3066 20.5081 26.1112 19.3127 24.6412 19.3127ZM24.6412 23.3107C23.9056 23.3107 23.3086 22.7123 23.3086 21.978C23.3086 21.2437 23.9056 20.6453 24.6412 20.6453C25.3769 20.6453 25.9739 21.2437 25.9739 21.978C25.9739 22.7123 25.3769 23.3107 24.6412 23.3107ZM15.9789 31.3066H6.6503C4.07826 31.3066 1.98598 29.2143 1.98598 26.6423V17.3137C1.98598 14.7416 4.07826 12.6494 6.6503 12.6494H19.9769C21.1696 12.6494 22.3024 13.0985 23.17 13.9141C23.4378 14.1646 23.8603 14.1539 24.1122 13.8861C24.364 13.6182 24.352 13.1958 24.0842 12.9439C23.4725 12.3682 22.7515 11.951 21.9772 11.6765V9.31904C21.9772 4.54278 18.0912 0.656738 13.3149 0.656738C8.53868 0.656738 4.65131 4.54145 4.65131 9.31771V11.6845C2.32981 12.5121 0.65332 14.711 0.65332 17.3137V26.6423C0.65332 29.9486 3.34396 32.6393 6.6503 32.6393H15.9789C16.3467 32.6393 16.6453 32.3408 16.6453 31.973C16.6453 31.6051 16.3467 31.3066 15.9789 31.3066ZM5.98397 9.31771C5.98397 5.27574 9.27298 1.98807 13.3136 1.98807C17.3542 1.98807 20.6432 5.27574 20.6432 9.31771V11.3793C20.422 11.354 20.2021 11.3167 19.9769 11.3167H6.6503C6.42241 11.3167 6.20519 11.3593 5.98397 11.3847V9.31771ZM13.3136 20.6453C13.6814 20.6453 13.9799 20.9438 13.9799 21.3117V23.977C13.9799 24.3448 13.6814 24.6433 13.3136 24.6433C12.9458 24.6433 12.6473 24.3448 12.6473 23.977V21.3117C12.6473 20.9438 12.9458 20.6453 13.3136 20.6453Z" fill="#AFAFAF"/>
</g>
<defs>
<clipPath id="clip0_666_63">
<rect width="31.9839" height="31.9839" fill="white" transform="translate(0.65332 0.655029)"/>
</clipPath>
</defs>
</svg>
